<svg xmlns="http://www.w3.org/2000/svg" xmlns:xlink="http://www.w3.org/1999/xlink" width="800" zoomAndPan="magnify" viewBox="0 0 600 149.999998" height="200" preserveAspectRatio="xMidYMid meet" version="1.0"><defs><g/></defs><g fill="#ffffff" fill-opacity="1"><g transform="translate(3.350824, 117.183221)"><g><path d="M 7.59375 -80.5625 L 24.515625 -80.5625 L 48.453125 -21.640625 L 72.265625 -80.5625 L 89.1875 -80.5625 L 89.1875 0 L 72.609375 0 L 72.609375 -46.609375 L 71.921875 -46.609375 L 70.546875 -36.828125 L 55.8125 0 L 40.96875 0 L 26.234375 -36.828125 L 24.859375 -46.609375 L 24.171875 -46.609375 L 24.171875 0 L 7.59375 0 Z M 7.59375 -80.5625 "/></g></g></g><g fill="#ffffff" fill-opacity="1"><g transform="translate(100.122789, 117.183221)"><g><path d="M 32.5625 -80.5625 L 48.453125 -80.5625 L 79.171875 0 L 60.640625 0 L 55.921875 -13.578125 L 25.09375 -13.578125 L 20.25 0 L 1.84375 0 Z M 50.640625 -28.65625 L 42 -53.28125 L 40.734375 -62.03125 L 40.15625 -62.03125 L 39.015625 -53.28125 L 30.375 -28.65625 Z M 50.640625 -28.65625 "/></g></g></g><g fill="#ffffff" fill-opacity="1"><g transform="translate(181.130462, 117.183221)"><g><path d="M 7.59375 -80.5625 L 38.09375 -80.5625 C 47.53125 -80.5625 55.046875 -78.203125 60.640625 -73.484375 C 66.242188 -68.765625 69.046875 -62.222656 69.046875 -53.859375 C 69.046875 -44.109375 64.632812 -36.550781 55.8125 -31.1875 L 55.8125 -29.921875 L 73.1875 0 L 53.859375 0 L 37.96875 -27.734375 L 25.203125 -27.734375 L 25.203125 0 L 7.59375 0 Z M 38.4375 -42.6875 C 42.351562 -42.6875 45.5 -43.664062 47.875 -45.625 C 50.25 -47.582031 51.4375 -50.40625 51.4375 -54.09375 C 51.4375 -57.84375 50.265625 -60.695312 47.921875 -62.65625 C 45.585938 -64.613281 42.425781 -65.59375 38.4375 -65.59375 L 25.203125 -65.59375 L 25.203125 -42.6875 Z M 38.4375 -42.6875 "/></g></g></g><g fill="#ffffff" fill-opacity="1"><g transform="translate(257.765558, 117.183221)"><g><path d="M 46.71875 1.15625 C 39.195312 1.15625 32.269531 -0.566406 25.9375 -4.015625 C 19.613281 -7.472656 14.59375 -12.328125 10.875 -18.578125 C 7.15625 -24.835938 5.296875 -32.070312 5.296875 -40.28125 C 5.296875 -48.488281 7.15625 -55.71875 10.875 -61.96875 C 14.59375 -68.21875 19.613281 -73.066406 25.9375 -76.515625 C 32.269531 -79.972656 39.195312 -81.703125 46.71875 -81.703125 C 53.320312 -81.703125 59.210938 -80.585938 64.390625 -78.359375 C 69.566406 -76.140625 73.800781 -73.035156 77.09375 -69.046875 C 80.394531 -65.054688 82.625 -60.453125 83.78125 -55.234375 L 82.734375 -53.625 L 66.96875 -51.5625 C 65.664062 -56.15625 63.210938 -59.71875 59.609375 -62.25 C 56.003906 -64.789062 51.554688 -66.0625 46.265625 -66.0625 C 41.578125 -66.0625 37.46875 -64.96875 33.9375 -62.78125 C 30.414062 -60.59375 27.710938 -57.539062 25.828125 -53.625 C 23.953125 -49.707031 23.015625 -45.257812 23.015625 -40.28125 C 23.015625 -35.289062 23.972656 -30.835938 25.890625 -26.921875 C 27.804688 -23.015625 30.546875 -19.96875 34.109375 -17.78125 C 37.679688 -15.59375 41.882812 -14.5 46.71875 -14.5 C 51.78125 -14.5 56.078125 -15.765625 59.609375 -18.296875 C 63.140625 -20.828125 65.59375 -24.394531 66.96875 -29 L 82.734375 -26.921875 L 83.65625 -25.3125 C 81.050781 -16.800781 76.523438 -10.257812 70.078125 -5.6875 C 63.640625 -1.125 55.851562 1.15625 46.71875 1.15625 Z M 46.71875 1.15625 "/></g></g></g><g fill="#ffffff" fill-opacity="1"><g transform="translate(346.827962, 117.183221)"><g><path d="M 46.609375 1.15625 C 38.785156 1.15625 31.726562 -0.585938 25.4375 -4.078125 C 19.144531 -7.578125 14.210938 -12.453125 10.640625 -18.703125 C 7.078125 -24.953125 5.296875 -32.144531 5.296875 -40.28125 C 5.296875 -48.40625 7.078125 -55.59375 10.640625 -61.84375 C 14.210938 -68.101562 19.144531 -72.976562 25.4375 -76.46875 C 31.726562 -79.957031 38.785156 -81.703125 46.609375 -81.703125 C 54.359375 -81.703125 61.378906 -79.957031 67.671875 -76.46875 C 73.960938 -72.976562 78.890625 -68.101562 82.453125 -61.84375 C 86.015625 -55.59375 87.796875 -48.40625 87.796875 -40.28125 C 87.796875 -32.144531 86.015625 -24.953125 82.453125 -18.703125 C 78.890625 -12.453125 73.960938 -7.578125 67.671875 -4.078125 C 61.378906 -0.585938 54.359375 1.15625 46.609375 1.15625 Z M 46.609375 -14.5 C 51.285156 -14.5 55.40625 -15.59375 58.96875 -17.78125 C 62.539062 -19.96875 65.304688 -23 67.265625 -26.875 C 69.222656 -30.75 70.203125 -35.21875 70.203125 -40.28125 C 70.203125 -45.34375 69.222656 -49.8125 67.265625 -53.6875 C 65.304688 -57.5625 62.539062 -60.59375 58.96875 -62.78125 C 55.40625 -64.96875 51.285156 -66.0625 46.609375 -66.0625 C 41.847656 -66.0625 37.679688 -64.96875 34.109375 -62.78125 C 30.546875 -60.59375 27.804688 -57.5625 25.890625 -53.6875 C 23.972656 -49.8125 23.015625 -45.34375 23.015625 -40.28125 C 23.015625 -35.21875 23.972656 -30.75 25.890625 -26.875 C 27.804688 -23 30.546875 -19.96875 34.109375 -17.78125 C 37.679688 -15.59375 41.847656 -14.5 46.609375 -14.5 Z M 46.609375 -14.5 "/></g></g></g><g fill="#ffffff" fill-opacity="1"><g transform="translate(439.917746, 117.183221)"><g><path d="M 40.5 1.15625 C 33.675781 1.15625 27.789062 -0.203125 22.84375 -2.921875 C 17.894531 -5.648438 14.113281 -9.46875 11.5 -14.375 C 8.894531 -19.289062 7.59375 -25.007812 7.59375 -31.53125 L 7.59375 -80.5625 L 25.203125 -80.5625 L 25.203125 -31.640625 C 25.203125 -26.046875 26.503906 -21.789062 29.109375 -18.875 C 31.722656 -15.957031 35.519531 -14.5 40.5 -14.5 C 45.488281 -14.5 49.285156 -15.957031 51.890625 -18.875 C 54.503906 -21.789062 55.8125 -26.046875 55.8125 -31.640625 L 55.8125 -80.5625 L 73.421875 -80.5625 L 73.421875 -31.53125 C 73.421875 -25.007812 72.113281 -19.289062 69.5 -14.375 C 66.894531 -9.46875 63.117188 -5.648438 58.171875 -2.921875 C 53.222656 -0.203125 47.332031 1.15625 40.5 1.15625 Z M 40.5 1.15625 "/></g></g></g><g fill="#ffffff" fill-opacity="1"><g transform="translate(520.925394, 117.183221)"><g><path d="M 27.96875 -43.953125 L 6.5625 -80.5625 L 25.65625 -80.5625 L 37.859375 -58 L 50.0625 -80.5625 L 69.046875 -80.5625 L 47.640625 -43.953125 L 74.34375 0 L 54.78125 0 L 37.859375 -29.234375 L 20.828125 0 L 1.375 0 Z M 27.96875 -43.953125 "/></g></g></g></svg>