<?xml version="1.0" standalone="yes"?>
<svg xmlns="http://www.w3.org/2000/svg" width="3333" height="833">
<path style="fill:#ffffff; stroke:none;" d="M0 0L0 833L3333 833L3333 0L0 0z"/>
<path style="fill:#010101; stroke:none;" d="M1803 489C1785.43 564.9 1689.48 588.999 1627 554.138C1582.58 529.354 1560.59 479.466 1560 430C1559.39 378.788 1579.86 326.197 1626 299.873C1688.13 264.427 1785.6 289.776 1803 365C1825.5 364.034 1848.69 359.458 1871 356.271C1877.51 355.341 1889.49 356.233 1893.96 350.852C1902.4 340.684 1891.77 320.483 1887.28 310C1870.68 271.208 1840.94 241.156 1804 221.309C1732.61 182.955 1633.16 188.758 1565 231.064C1443.02 306.776 1425.53 490.472 1525.04 591.985C1582.61 650.717 1673.54 669.737 1752 651.116C1806.31 638.226 1850.78 604.323 1878.42 556C1884.77 544.907 1889.57 532.986 1893.95 521C1896.2 514.829 1898.22 508.813 1893.36 503.228C1888.63 497.787 1875.73 498.604 1869 497.718C1847.09 494.837 1825.03 490.738 1803 489M2162 197.424C2119.84 202.963 2081.27 213.916 2046 238.721C1934.02 317.47 1926 496.992 2019.17 592.911C2070.38 645.63 2148.8 664.802 2220 655.714C2278.67 648.226 2334.39 618.695 2370.1 571C2444.2 472.053 2426.61 313.947 2326 239.884C2303.14 223.057 2276.47 211.027 2249 204.127C2221.6 197.245 2190.19 193.722 2162 197.424M60 203L60 651L153 651L153 392C158.357 395.13 157.589 403.376 158.421 409C160.678 424.248 161.263 440.599 167 455C184.274 498.357 201.669 541.666 219 585C227.637 606.594 238.867 628.577 245 651L305 651C311.007 651 323.455 653.363 328.582 649.972C332.53 647.361 334.119 639.203 335.8 635L351 597C370.604 547.983 395.283 498.549 410.43 448C414.22 435.351 414.647 421.051 416.579 408C417.379 402.594 416.955 395.96 421 392L421 651L515 651L515 203L445 203L419.699 204.028L409.2 228L383.397 292L288 528L261.6 464L217.397 355L179.576 262L156 203L60 203M736 203C725.357 241.99 706.801 280.207 692.424 318L605.576 546C592.583 580.155 574.423 615.455 566 651L642 651C648.266 651 664.552 653.89 669.298 649.397C672.623 646.248 673.605 639.19 675.192 635C680.196 621.787 684.71 608.347 689.344 595C691.028 590.149 693.01 578.773 698.133 576.603C702.496 574.756 709.333 576 714 576L748 576L867 576L892 651L996 651C994.098 638.124 987.041 625.137 982.424 613C972.911 587.992 963.475 562.95 953.811 538C925.604 465.178 897.404 392.245 870.319 319C860.049 291.23 848.951 263.77 838.681 236C835.814 228.245 832.141 208.878 825.351 204.028C820.392 200.486 806.958 203 801 203L736 203M1048 203L1048 651L1147 651L1147 497L1196 497C1201.29 497 1211 495.143 1215.62 498.028C1224.33 503.471 1231.22 523.097 1236.28 532C1252.42 560.39 1268.73 588.686 1285 617C1290.08 625.837 1296.24 644.179 1304.63 649.972C1310.55 654.051 1326.91 651 1334 651L1413 651C1408.68 637.334 1398.37 624.43 1391.28 612C1375.25 583.886 1358.82 555.99 1342.58 528C1336.77 517.997 1330.91 508.031 1325.15 498C1322.56 493.48 1318.14 488.299 1317.45 483.001C1316.75 477.632 1322.23 474.879 1326 472.33C1335.6 465.839 1344.99 458.494 1352.91 450C1374.62 426.723 1387.73 396.787 1389.91 365C1391.13 347.135 1390.12 328.405 1385.87 311C1382.61 297.651 1377.59 284.823 1370.55 273C1319.39 187.184 1203.48 203 1119 203L1048 203M2485 203L2485 424C2485 476.017 2482.65 529.214 2509.43 576C2576.94 693.953 2779.64 683.417 2835.69 561C2855.7 517.297 2852 468.744 2852 422L2852 203L2753 203L2753 441C2753 477.428 2757 519.656 2728.83 547.83C2688.66 587.998 2608.69 572.684 2590.67 518C2579.02 482.65 2584 441.714 2584 405L2584 203L2485 203M2930 203C2934.99 219.978 2948.7 236.705 2957.58 252C2977.15 285.721 2996.73 319.458 3016.6 353C3023.89 365.291 3031.21 377.589 3038.28 390C3040.92 394.624 3046.2 400.595 3046.77 406C3047.37 411.765 3039.89 420.298 3036.95 425C3027.44 440.199 3018.24 455.633 3009 471C2984.51 511.733 2959.65 552.245 2935.2 593C2924.12 611.467 2908.4 630.782 2901 651L2979 651C2986.94 651 3002.87 654.048 3009.79 649.972C3013.57 647.744 3015.84 641.665 3017.99 638L3036.01 607C3051.25 581.058 3066.32 555.02 3081.42 529C3088.63 516.576 3097.45 504.259 3103 491L3105 491L3130.58 536L3173.4 610L3190.15 639L3198.33 650.397L3230 651L3307 651C3300.09 629.162 3281.23 606.455 3269.05 587C3244.86 548.347 3221.46 509.102 3198 470C3188.96 454.941 3179.64 440.059 3170.6 425C3167.76 420.267 3160.4 412.059 3160.4 406.424C3160.4 401.511 3166.73 394.155 3169.2 390C3177.1 376.728 3184.73 363.289 3192.6 350C3210.91 319.103 3228.82 287.968 3247.01 257C3257.31 239.471 3270.15 221.746 3278 203L3204 203L3172.21 203.603L3165.69 213L3153.22 236L3105 326L3103 326C3091.56 294.578 3070.22 264.421 3054.31 235C3050.26 227.524 3043.76 207.071 3035.79 203.603C3027.96 200.199 3013.51 203 3005 203L2930 203z"/>
<path style="fill:#ffffff; stroke:none;" d="M2180 284.424C2145.35 288.975 2114.73 296.716 2090.17 324C2042.66 376.788 2041.64 475.761 2089.17 529C2118 561.288 2161.85 573.907 2204 568.714C2295.32 557.463 2332.54 458.491 2309.57 378C2294.01 323.46 2239.55 276.606 2180 284.424M1147 287L1147 413C1181.47 413 1225.96 420.465 1258 405.691C1299.56 386.525 1303.7 321.121 1264 297.453C1246.62 287.091 1226.56 287 1207 287L1147 287M780 307L772.96 356L726 491L836 491L816.344 433L789.478 356L782 307L780 307z"/>
</svg>
